<?xml version="1.0" encoding="UTF-8" standalone="no"?>
<!-- Generator: Adobe Illustrator 17.1.0, SVG Export Plug-In . SVG Version: 6.00 Build 0)  -->

<svg
   version="1.1"
   id="Capa_1"
   x="0px"
   y="0px"
   viewBox="0 0 207.628 207.628"
   style="enable-background:new 0 0 207.628 207.628;"
   xml:space="preserve"
   sodipodi:docname="sun.svg"
   inkscape:version="1.1 (c68e22c387, 2021-05-23)"
   xmlns:inkscape="http://www.inkscape.org/namespaces/inkscape"
   xmlns:sodipodi="http://sodipodi.sourceforge.net/DTD/sodipodi-0.dtd"
   xmlns="http://www.w3.org/2000/svg"
   xmlns:svg="http://www.w3.org/2000/svg"><defs
   id="defs55" /><sodipodi:namedview
   id="namedview53"
   pagecolor="#ffffff"
   bordercolor="#999999"
   borderopacity="1"
   inkscape:pageshadow="0"
   inkscape:pageopacity="0"
   inkscape:pagecheckerboard="0"
   showgrid="false"
   inkscape:zoom="4.2046351"
   inkscape:cx="87.760291"
   inkscape:cy="103.814"
   inkscape:window-width="2560"
   inkscape:window-height="1411"
   inkscape:window-x="0"
   inkscape:window-y="1"
   inkscape:window-maximized="1"
   inkscape:current-layer="Capa_1" />

<path
   d="m 103.814,157.183 c -29.427,0 -53.368,-23.941 -53.368,-53.368 0,-29.427 23.941,-53.368 53.368,-53.368 29.427,0 53.368,23.941 53.368,53.368 0,29.427 -23.941,53.368 -53.368,53.368 z"
   id="path4"
   style="fill:#7f7f7f;fill-opacity:1;stroke:none;stroke-opacity:1"
   sodipodi:nodetypes="sssss" />
<path
   d="M103.814,39.385c-4.142,0-7.5-3.358-7.5-7.5V7.5c0-4.142,3.358-7.5,7.5-7.5s7.5,3.358,7.5,7.5v24.385  C111.314,36.027,107.956,39.385,103.814,39.385z"
   id="path6"
   style="fill:#7f7f7f;fill-opacity:1" />
<path
   d="M103.814,207.628c-4.142,0-7.5-3.358-7.5-7.5v-24.385c0-4.142,3.358-7.5,7.5-7.5s7.5,3.358,7.5,7.5v24.385  C111.314,204.271,107.956,207.628,103.814,207.628z"
   id="path8"
   style="fill:#7f7f7f;fill-opacity:1" />
<path
   d="M200.128,111.314h-24.385c-4.142,0-7.5-3.358-7.5-7.5s3.358-7.5,7.5-7.5h24.385c4.142,0,7.5,3.358,7.5,7.5  S204.271,111.314,200.128,111.314z"
   id="path10"
   style="fill:#7f7f7f;fill-opacity:1" />
<path
   d="M31.885,111.314H7.5c-4.142,0-7.5-3.358-7.5-7.5s3.358-7.5,7.5-7.5h24.385c4.142,0,7.5,3.358,7.5,7.5  S36.027,111.314,31.885,111.314z"
   id="path12"
   style="fill:#7f7f7f;fill-opacity:1" />
<path
   d="M154.676,60.452c-1.919,0-3.839-0.732-5.303-2.197c-2.929-2.929-2.929-7.678,0-10.606l17.243-17.242  c2.929-2.929,7.678-2.93,10.606,0c2.929,2.929,2.929,7.678,0,10.606l-17.243,17.242C158.515,59.72,156.595,60.452,154.676,60.452z"
   id="path14"
   style="fill:#7f7f7f;fill-opacity:1" />
<path
   d="M35.709,179.419c-1.919,0-3.839-0.732-5.303-2.197c-2.929-2.929-2.929-7.678,0-10.606l17.243-17.243  c2.929-2.929,7.678-2.929,10.606,0c2.929,2.929,2.929,7.678,0,10.606l-17.243,17.243C39.548,178.687,37.629,179.419,35.709,179.419z  "
   id="path16"
   style="fill:#7f7f7f;fill-opacity:1" />
<path
   d="M171.918,179.419c-1.919,0-3.839-0.732-5.303-2.197l-17.243-17.243c-2.929-2.929-2.929-7.678,0-10.606  c2.929-2.929,7.678-2.929,10.606,0l17.243,17.243c2.929,2.929,2.929,7.678,0,10.606  C175.757,178.687,173.838,179.419,171.918,179.419z"
   id="path18"
   style="fill:#7f7f7f;fill-opacity:1" />
<path
   d="M52.952,60.452c-1.919,0-3.839-0.732-5.303-2.197L30.406,41.013c-2.929-2.929-2.929-7.677,0-10.606  c2.929-2.929,7.678-2.93,10.606,0l17.243,17.242c2.929,2.929,2.929,7.677,0,10.606C56.791,59.72,54.872,60.452,52.952,60.452z"
   id="path20"
   style="fill:#7f7f7f;fill-opacity:1" />
</svg>
